<?xml version="1.0" standalone="no"?>
<!DOCTYPE svg PUBLIC "-//W3C//DTD SVG 20010904//EN"
 "http://www.w3.org/TR/2001/REC-SVG-20010904/DTD/svg10.dtd">
<svg version="1.0" xmlns="http://www.w3.org/2000/svg"
 width="60.000000pt" height="58.000000pt" viewBox="0 0 60.000000 58.000000"
 preserveAspectRatio="xMidYMid meet">

<g transform="translate(0.000000,58.000000) scale(0.100000,-0.100000)"
fill="#000000" stroke="none">
<path d="M162 303 l3 -144 70 -30 69 -29 76 29 c70 27 75 31 78 61 4 36 3 36
-99 -5 l-55 -22 -47 24 c-34 17 -47 29 -47 44 0 19 4 21 30 16 27 -6 30 -4 30
18 0 17 -9 29 -30 40 -27 14 -39 43 -24 58 3 3 25 -3 48 -12 l41 -18 78 30
c66 26 77 34 77 54 0 29 -7 29 -89 -1 l-67 -24 -72 28 -73 28 3 -145z"/>
<path d="M360 301 c-25 -7 -36 -30 -26 -57 4 -11 10 -12 31 -2 18 8 25 19 25
40 0 15 -1 28 -2 27 -2 -1 -14 -4 -28 -8z"/>
</g>
</svg>
